<svg width="1550" height="1646" viewBox="0 0 1550 1646" fill="none" xmlns="http://www.w3.org/2000/svg">
<path d="M470.5 3C440 47.8333 382.9 141.2 398.5 156C418 174.5 500 64.5 502.5 57C505 49.5 417 107.5 417 114.5C417 121.5 475.5 84 489 87.5C499.8 90.3 493.5 106.667 489 114.5C507.5 90.8333 549.6 44 570 46C558.333 61.6667 534.1 96.1 530.5 108.5C553.167 86.8333 600.9 46.2 610.5 57C622.5 70.5 465.5 256.5 454.5 262C443.5 267.5 484.608 213 502.5 200.5C520.392 188 553.5 165.5 565 170C576.5 174.5 530.5 306.5 530.5 326.5C530.5 346.5 593 89 660 46C649.167 65.6667 625.8 113.8 619 149C646.333 112.167 711.7 42.2 754.5 57C808 75.5 654 194.5 636.5 190.5C619 186.5 818 62.5 834 57C850 51.5 759.5 147.5 749 190.5C728.167 219.167 689 283.1 699 309.5C711.5 342.5 859 264.5 844 257C829 249.5 801 225.5 844 170C887 114.5 1029 61 1051 65.5C1073 70 956.5 132.5 928.5 156C900.5 179.5 1095.5 90.5 1115 99.5C1134.5 108.5 1066.5 142 1043.5 156C1020.5 170 928.5 224 928.5 237.5C928.5 251 924 291.5 1008.5 262C1093 232.5 1050.5 214.5 1016.5 219C989.3 222.6 941.5 230.5 929.175 251.5C907.783 275.5 850.4 329.9 792 355.5C719 387.5 471.5 397.5 373 391C294.2 385.8 831.167 399.167 1109.5 406.5C1001 406.667 834 452.5 726 462.5C612.93 472.969 438.5 523 394.5 560.5" stroke="black" stroke-width="5" stroke-linecap="round" stroke-linejoin="round"/>
<path d="M394.5 560.5C350.5 598 307.5 740.5 292.5 776.5C277.5 812.5 249.8 815 231 807C207.5 797 156 759 142 776.5C128 794 173 820.5 191 816.5C209 812.5 239 779 231 760.5C223 742 204 749.5 204 760.5C204 771.5 231 775 231 723C231 671 189 671.5 176.5 675.5C164 679.5 142 714.5 142 734.5C142 754.5 164.5 746 170.5 734.5C176.5 723 143.5 655.5 99.5002 675.5C55.5002 695.5 63.0002 755.5 74.5002 766C86.0002 776.5 103 750.5 92.5001 742.5C82.0001 734.5 34.5001 692.5 13.0001 723C-8.49992 753.5 8.50007 802 23.0001 807C37.5001 812 48.5 795.5 42 786C35.5 776.5 -5.43594e-05 809 6.50002 825.5C13.0001 842 114 785.5 128 816.5C142 847.5 -9.49965 1058.5 74.5002 1246.5C158.5 1434.5 420 1479 562.5 1455.5C683.459 1435.55 669 1395.5 755 1295.5C841 1195.5 935 1309 1016.5 1333C1098 1357 1116.08 1305.14 1118 1296C1120 1286.5 1120 1284 1110.5 1273.5C1101 1263 1080 1242 1084.5 1237.5C1089 1233 1103.5 1252 1107 1250C1110.5 1248 1093.5 1227 1099.5 1225C1105.5 1223 1114.5 1245.5 1121 1245.5C1127.5 1245.5 1108 1222 1114.5 1220C1121 1218 1130.5 1244 1134 1242.5C1137.5 1241 1127 1220 1134 1220C1141 1220 1147.13 1236.22 1151.5 1245.5C1155.5 1254 1161 1258 1164.5 1254C1168 1250 1164 1243.5 1172.5 1246C1181 1248.5 1179 1266 1170.5 1281.5C1162 1297 1160 1293.5 1153 1293C1146 1292.5 1134 1287 1134 1293C1134 1299 1156.27 1304.06 1164.5 1302C1172.5 1300 1179.59 1286.56 1189 1279.5C1197 1273.5 1270.5 1240.5 1272 1231.5C1273.5 1222.5 1241.5 1203.5 1235 1197.5C1228.5 1191.5 1221 1178 1210.5 1176C1200 1174 1198.5 1173.5 1197 1176C1195.5 1178.5 1215.5 1182.5 1215.5 1187C1215.5 1191.5 1206.5 1182.5 1195.5 1183.5C1184.5 1184.5 1180.5 1184.5 1179 1187C1177.5 1189.5 1208.5 1189.5 1209.5 1196.5C1204 1194.83 1191.3 1192.2 1184.5 1195C1176 1198.5 1176 1201 1179.5 1202C1183 1203 1195.5 1198.5 1203.5 1202C1211.5 1205.5 1213 1208 1212 1215.5C1211 1223 1197.5 1211 1190 1210.5C1182.5 1210 1178.5 1210.5 1180.5 1215.5C1182.5 1220.5 1198.5 1223.5 1202 1230C1205.5 1236.5 1209 1238.5 1218 1240.5C1227 1242.5 1240 1231.5 1241.5 1237.5C1243 1243.5 1215 1253.5 1197 1262.5C1179 1271.5 1169 1282.5 1146 1278C1123 1273.5 1131.5 1283.68 1127 1297C1122.5 1310.32 1115 1316 1098 1304.5C1078.83 1274.17 1041 1211.9 1043 1205.5C1045 1199.1 1124.83 1173.5 1164.5 1161.5C1167.17 1160.83 1172.8 1159.9 1174 1161.5C1175.5 1163.5 1153 1177.5 1134 1184.5C1115 1191.5 1071.5 1206.5 1066.5 1202C1061.5 1197.5 1064 1192.5 1058 1190.5C1052 1188.5 1046 1196.5 1040.5 1193C1035 1189.5 1007.5 1085.5 1013.5 1076.5C1019.5 1067.5 1180.5 1029.5 1190.5 1035.5C1200.5 1041.5 1222 1133.5 1217.5 1141C1213 1148.5 1198 1150 1195.5 1145.5C1193 1141 1204 1143 1207.5 1132.5C1211 1122 1192.5 1050.5 1180 1047.5C1167.5 1044.5 1034.5 1073.5 1029.5 1085C1024.5 1096.5 1044.5 1180.5 1054.5 1182C1064.5 1183.5 1166.5 1137.5 1187.5 1151.5C1208.5 1165.5 1232 1178.5 1247 1182C1262 1185.5 1283 1204.5 1283.5 1220C1284 1235.5 1282 1253.5 1300.5 1252.5C1319 1251.5 1534.5 1219 1545.5 1371C1556.5 1523 1491.5 1623.5 1443.5 1643.5" stroke="black" stroke-width="5" stroke-linecap="round" stroke-linejoin="round"/>
</svg>
