<svg width="1515" height="1090" viewBox="0 0 1515 1090" fill="none" xmlns="http://www.w3.org/2000/svg">
<path id="Vector 95" d="M797 5C773 149 632 191 585.5 192.5C539 194 523.5 130.5 545 104C566.5 77.5 598.5 88.5 616.5 115.5C634.5 142.5 613.5 215.5 523.5 220.5C433.5 225.5 278 182 146.5 275.5C15 369 -10 496 25 570.5C60 645 70.1708 648.626 78.5 697C91.5 772.5 -1.99992 795 6.50002 846.5C15 898 50.4999 880.5 60 875.5C69.5 870.5 89.9998 846.5 125 839C160 831.5 187.5 882.5 200.5 856.5C213.5 830.5 177.5 801.5 189 772.5C200.5 743.5 238 737.5 267 714.5C296 691.5 285.5 651.5 305.5 637C325.5 622.5 329 626.5 332 630.5C335 634.5 320.5 648.5 320.5 660C320.5 671.5 322 683.5 328.5 685C335 686.5 343 687 355.5 670C365.5 656.4 438.333 563.667 473.5 519C475 517.333 477.9 513.2 477.5 510C477 506 473.5 504 475.5 501C477.5 498 550 433.5 559.5 448C569 462.5 551.5 468 537.5 485.5C523.5 503 519 520 513 523.5C507 527 503 520 495.5 526.5C488 533 367 695 355.5 719.5C344 744 346 744.5 341.5 756.5C337 768.5 333 843.5 315 856.5C297 869.5 291.5 862 290 856.5C288.5 851 297 838.5 294.5 825.5C292 812.5 280 798.5 273.5 795C267 791.5 249 787.5 252.5 765C256 742.5 282.5 748 294.5 732.5C306.5 717 306 698 320.5 697C335 696 325.5 732 355.5 739.5C385.5 747 395 725.5 400 732.5C405 739.5 406 748 395.5 756.5C385 765 365.5 767.5 357.5 784.5C349.5 801.5 352 844.5 332 859.5C312 874.5 294.5 885.5 264 874C233.5 862.5 221 843 225 840C229 837 245 854 247.5 859.5C250 865 272 893 304.5 892C337 891 332 879.5 371.5 887.5C411 895.5 404.5 926 452.5 917.5C500.5 909 513 896 554.5 896C596 896 608 907.5 657.5 921C707 934.5 827.9 948.1 971.5 934.5C1151 917.5 1303.5 946.528 1509.5 1084.5" stroke="black" stroke-width="10" stroke-linecap="round" stroke-linejoin="round"/>
</svg>
