<svg width="1647" height="1091" viewBox="0 0 1647 1091" fill="none" xmlns="http://www.w3.org/2000/svg">
<path id="Vector 96" d="M1488.5 5.5C1694.5 143.472 1638 530 1622 636.5C1606 743 1531.5 863.5 1490 861C1458.73 859.116 1448.72 837.218 1461 816.5C1469 803 1489.27 797.022 1508 808C1522.5 816.5 1532 854.872 1490 888C1419 944 1217.4 966.5 1187 912.5C1156.6 858.5 1109.83 721.833 1086 660C1085 656.5 1084 647.8 1088 641C1092 634.2 1097.67 630.5 1100 629.5L1183.5 594C1186.33 593.167 1192.2 592.3 1193 595.5C1194 599.5 1196.8 610.922 1173 622C1144 635.5 1135 632 1145 623C1155 614 1196 594.5 1203 591.5C1208.6 589.1 1223.67 583.5 1230.5 581C1237 581 1239.5 581.6 1245.5 586C1251.5 590.4 1255.5 596.5 1258 603.5L1351 827C1352 833 1350.5 843 1348 848C1345 854 1340 856.5 1334.5 861L1224 905C1219.5 907.167 1209 910.2 1203 905C1197 899.8 1193.83 890.167 1193 886L1108.5 673C1107.67 671.333 1106.5 666.9 1108.5 662.5C1110.5 658.1 1115.67 655.667 1118 655L1227 613C1232 610.833 1236.2 611.098 1240 613C1244 615 1247.33 622.667 1248.5 625.5L1322.5 803.5C1324.5 808.5 1327.6 819.5 1324 823.5C1320.4 827.5 1314.83 830.167 1312.5 831L1171 890.5C1162 893.5 1124.5 911 1063 898.5C1001.5 886 977.499 863.032 931.5 866C885.5 868.968 851.5 891 816 905C780.5 919 701.5 938 623.5 931C514.856 921.25 373 874.5 249 886.5C130.007 898.016 29 954.5 5 1086" stroke="black" stroke-width="10" stroke-linecap="round" stroke-linejoin="round"/>
</svg>
