<svg width="1613" height="918" viewBox="0 0 1613 918" fill="none" xmlns="http://www.w3.org/2000/svg">
<path id="&#237;&#148;&#132;&#235;&#161;&#156;&#237;&#149;&#132;" d="M1610.5 3C1599.5 165 1524.6 253.6 1465 272C1390.5 295 1378 258 1379.5 251C1381 244 1387 243 1388 247C1389 251 1385 261.5 1376.5 269C1368 276.5 1326.5 301 1280.5 296C1234.5 291 1202.5 273.5 1201.5 265C1200.5 256.5 1203 182.5 1197.5 180.5C1192 178.5 1190.5 193 1190 196C1189.5 199 1190.5 218.5 1197.5 218.5C1204.5 218.5 1206 198 1213.5 203C1221 208 1208 233 1219 241C1230 249 1229.5 240 1232.5 238.5C1235.5 237 1239.5 239 1242.5 236.5C1245.5 234 1246 221.5 1252.5 225C1259 228.5 1256.5 243.5 1256 251C1255.5 258.5 1258 277 1265 274.5C1272 272 1272 261 1271 251C1270 241 1270.5 236.5 1276.5 236.5C1282.5 236.5 1280.5 251 1280.5 259C1280.5 267 1279 278.5 1284 278C1289 277.5 1291.5 252 1290 238.5C1288.5 225 1287 207.5 1298 208.5C1309 209.5 1307 227.5 1305.5 233C1304 238.5 1299 258.5 1303 265C1307 271.5 1308 263.5 1312.5 269C1317 274.5 1315.5 280.5 1323.5 280.5C1331.5 280.5 1323.5 236.5 1323.5 225C1323.5 213.5 1328 208.5 1331.5 208.5C1335 208.5 1337.5 220 1335.5 230.5C1333.5 241 1333.5 273 1343.5 269C1353.5 265 1343.5 235 1343.5 225C1343.5 215 1348 210 1353 211C1358 212 1353.5 228 1365 225C1376.5 222 1380.5 189.5 1376.5 180.5C1372.5 171.5 1358.5 196.5 1292.5 194C1226.5 191.5 1197.5 179.5 1201.5 166.5C1205.5 153.5 1272 156 1278 150.5C1284 145 1276.5 124.5 1276.5 115.5C1276.5 106.5 1280.5 103.5 1286.5 100C1292.5 96.5 1296 94.5 1296 86.5C1296 78.5 1287.5 73 1290 64C1292.5 55 1275.5 78 1278 90C1280.5 102 1296 102 1296 107C1296 112 1299.5 157 1296 160.5C1292.5 164 1279.5 167 1278 160.5C1276.5 154 1292.5 152 1309 153.5C1325.5 155 1363 160.5 1367.5 166.5C1372 172.5 1375 278 1367.5 288C1360 298 1311 310.5 1278 308.5C1245 306.5 1194 279 1190 269C1186 259 1183.5 249 1188.5 250C1193.5 251 1203 268 1177 278C1151 288 1137.5 295 1100.5 286.5C1063.5 278 949 209 811 252.5C673 296 717.5 396.5 596.5 389C556.378 386.513 542 371.5 520 367.5C500.267 363.912 470.5 371.5 424.5 355C386.893 341.511 357 374.5 322.5 367.5C288 360.5 265 349.5 259 355C253 360.5 251 402.5 255 410C259 417.5 297.5 431 342 429C386.5 427 416 423.5 424.5 412.5C433 401.5 427 364.5 419 362.5C411 360.5 346 393 324.5 389C303 385 179.5 329.5 179.5 324.5C179.5 319.5 329.5 293 342 294C354.5 295 511.5 319 511 324.5C510.5 330 445.5 349 435 349.5C424.5 350 378 318 348.5 320C319 322 333.5 336 339.5 335.5C345.5 335 348.5 331.5 348.5 328C348.5 324.5 346 315 302.5 328C259 341 206 326.5 202 347C198 367.5 205 380.5 198 396.5C191 412.5 171.5 428.5 175.5 433C179.5 437.5 196 431 202 410C202.833 419 205.8 436.2 211 433C216.2 429.8 216.167 414.667 215.5 407.5C218.667 418.333 226.4 439.3 232 436.5C239 433 220 402.5 215.5 385C211 367.5 207 342.5 189 355C171 367.5 156.5 349.5 130.5 349.5C104.5 349.5 57.0001 374 23 436.5C-11 499 -18.9 713.2 143.5 732C346.5 755.5 641 686 721.5 718C802 750 829 800.3 829 805.5C829 812 823 820 810 808.5C797 797 799 762 834.5 764C870 766 900.5 804.5 852.5 856.5C804.5 908.5 777 916.5 767 893C757 869.5 780.5 876.5 826 896.5C871.5 916.5 899 900.097 899 888.5C899 876 877 870 875.5 885C874 900 882 906.5 896.5 908C911 909.5 969.858 915.583 986 913C1011 909 1052 884 1053.5 827C1054.91 773.434 1037.56 750.5 1004 750.5C966.5 750.5 955 798 957 827C959 856 975 915.5 1032 915C1089 914.5 1149.5 798.5 1167.5 798.5C1185.5 798.5 1184.5 809.5 1171 811C1157.5 812.5 1137 810.5 1138.5 792C1140 773.5 1161 742.5 1193 750.5C1225 758.5 1235.5 799.5 1234.5 811C1233.5 822.5 1231.5 855.5 1196.5 881.5C1161.5 907.5 1121 919.5 1120 900.5C1119 881.5 1189.5 914.5 1221 907.5C1252.5 900.5 1311.44 804.722 1323.5 795.5C1332 789 1344 791 1340.5 800.5C1337 810 1327.5 808 1321.5 808C1313.22 808 1299 807 1300 784C1301 761 1328.5 740 1355.5 744C1382.5 748 1410 775.5 1404.5 818.5C1399 861.5 1363.5 877.5 1354 885.5C1344.5 893.5 1298.5 918.5 1289 904.5C1278.61 889.186 1389.5 910.5 1419 907.5" stroke="black" stroke-width="5" stroke-linecap="round" stroke-linejoin="round"/>
</svg>
