<svg width="1616" height="1886" viewBox="0 0 1616 1886" fill="none" xmlns="http://www.w3.org/2000/svg">
<path id="&#237;&#148;&#132;&#235;&#161;&#156;&#237;&#149;&#132;" d="M325.463 107.5C310.463 143.5 282.763 146 263.963 138C240.463 128 188.963 90 174.963 107.5C160.963 125 205.963 151.5 223.963 147.5C241.963 143.5 271.963 110 263.963 91.5C255.963 73 236.963 80.5 236.963 91.5C236.963 102.5 263.963 106 263.963 54C263.963 2.00001 221.963 2.50001 209.463 6.50001C196.963 10.5 174.963 45.5 174.963 65.5C174.963 85.5 197.463 77 203.463 65.5C209.463 54 176.463 -13.5 132.463 6.50001C88.4629 26.5 95.9629 86.5 107.463 97C118.963 107.5 135.963 81.5 125.463 73.5C114.963 65.5 67.4627 23.5 45.9627 54C24.4627 84.5 41.4627 133 55.9627 138C70.4627 143 81.4627 126.5 74.9627 117C68.4627 107.5 32.9626 140 39.4627 156.5C45.9627 173 146.963 116.5 160.963 147.5C174.963 178.5 23.463 389.5 107.463 577.5C191.463 765.5 452.963 810 595.463 786.5C716.422 766.552 701.963 726.5 787.963 626.5C873.963 526.5 967.962 640 1049.46 664C1130.96 688 1149.04 636.14 1150.96 627C1152.96 617.5 1152.96 615 1143.46 604.5C1133.96 594 1112.96 573 1117.46 568.5C1121.96 564 1136.46 583 1139.96 581C1143.46 579 1126.46 558 1132.46 556C1138.46 554 1147.46 576.5 1153.96 576.5C1160.46 576.5 1140.96 553 1147.46 551C1153.96 549 1163.46 575 1166.96 573.5C1170.46 572 1159.96 551 1166.96 551C1173.96 551 1180.09 567.217 1184.46 576.5C1188.46 585 1193.96 589 1197.46 585C1200.96 581 1196.96 574.5 1205.46 577C1213.96 579.5 1211.96 597 1203.46 612.5C1194.96 628 1192.96 624.5 1185.96 624C1178.96 623.5 1166.96 618 1166.96 624C1166.96 630 1189.23 635.058 1197.46 633C1205.46 631 1212.55 617.561 1221.96 610.5C1229.96 604.5 1303.46 571.5 1304.96 562.5C1306.46 553.5 1274.46 534.5 1267.96 528.5C1261.46 522.5 1253.96 509 1243.46 507C1232.96 505 1231.46 504.5 1229.96 507C1228.46 509.5 1248.46 513.5 1248.46 518C1248.46 522.5 1239.46 513.5 1228.46 514.5C1217.46 515.5 1213.46 515.5 1211.96 518C1210.46 520.5 1241.46 520.5 1242.46 527.5C1236.96 525.833 1224.26 523.2 1217.46 526C1208.96 529.5 1208.96 532 1212.46 533C1215.96 534 1228.46 529.5 1236.46 533C1244.46 536.5 1245.96 539 1244.96 546.5C1243.96 554 1230.46 542 1222.96 541.5C1215.46 541 1211.46 541.5 1213.46 546.5C1215.46 551.5 1231.46 554.5 1234.96 561C1238.46 567.5 1241.96 569.5 1250.96 571.5C1259.96 573.5 1272.96 562.5 1274.46 568.5C1275.96 574.5 1247.96 584.5 1229.96 593.5C1211.96 602.5 1201.96 613.5 1178.96 609C1155.96 604.5 1164.46 614.679 1159.96 628C1155.46 641.321 1147.96 647 1130.96 635.5C1111.8 605.167 1073.96 542.9 1075.96 536.5C1077.96 530.1 1157.8 504.5 1197.46 492.5C1200.13 491.833 1205.76 490.9 1206.96 492.5C1208.46 494.5 1185.96 508.5 1166.96 515.5C1147.96 522.5 1104.46 537.5 1099.46 533C1094.46 528.5 1096.96 523.5 1090.96 521.5C1084.96 519.5 1078.96 527.5 1073.46 524C1067.96 520.5 1040.46 416.5 1046.46 407.5C1052.46 398.5 1213.46 360.5 1223.46 366.5C1233.46 372.5 1254.96 464.5 1250.46 472C1245.96 479.5 1230.96 481 1228.46 476.5C1225.96 472 1236.96 474 1240.46 463.5C1243.96 453 1225.46 381.5 1212.96 378.5C1200.46 375.5 1067.46 404.5 1062.46 416C1057.46 427.5 1077.46 511.5 1087.46 513C1097.46 514.5 1199.46 468.5 1220.46 482.5C1241.46 496.5 1264.96 509.5 1279.96 513C1294.96 516.5 1315.96 535.5 1316.46 551C1316.96 566.5 1314.96 584.5 1333.46 583.5C1351.96 582.5 1526.66 558.678 1578.46 702C1593.46 743.5 1621.46 809 1610.46 971C1599.46 1133 1524.56 1221.6 1464.96 1240C1390.46 1263 1377.96 1226 1379.46 1219C1380.96 1212 1386.96 1211 1387.96 1215C1388.96 1219 1384.96 1229.5 1376.46 1237C1367.96 1244.5 1326.46 1269 1280.46 1264C1234.46 1259 1202.46 1241.5 1201.46 1233C1200.46 1224.5 1202.96 1150.5 1197.46 1148.5C1191.96 1146.5 1190.46 1161 1189.96 1164C1189.46 1167 1190.46 1186.5 1197.46 1186.5C1204.46 1186.5 1205.96 1166 1213.46 1171C1220.96 1176 1207.96 1201 1218.96 1209C1229.96 1217 1229.46 1208 1232.46 1206.5C1235.46 1205 1239.46 1207 1242.46 1204.5C1245.46 1202 1245.96 1189.5 1252.46 1193C1258.96 1196.5 1256.46 1211.5 1255.96 1219C1255.46 1226.5 1257.96 1245 1264.96 1242.5C1271.96 1240 1271.96 1229 1270.96 1219C1269.96 1209 1270.46 1204.5 1276.46 1204.5C1282.46 1204.5 1280.46 1219 1280.46 1227C1280.46 1235 1278.96 1246.5 1283.96 1246C1288.96 1245.5 1291.46 1220 1289.96 1206.5C1288.46 1193 1286.96 1175.5 1297.96 1176.5C1308.96 1177.5 1306.96 1195.5 1305.46 1201C1303.96 1206.5 1298.96 1226.5 1302.96 1233C1306.96 1239.5 1307.96 1231.5 1312.46 1237C1316.96 1242.5 1315.46 1248.5 1323.46 1248.5C1331.46 1248.5 1323.46 1204.5 1323.46 1193C1323.46 1181.5 1327.96 1176.5 1331.46 1176.5C1334.96 1176.5 1337.46 1188 1335.46 1198.5C1333.46 1209 1333.46 1241 1343.46 1237C1353.46 1233 1343.46 1203 1343.46 1193C1343.46 1183 1347.96 1178 1352.96 1179C1357.96 1180 1353.46 1196 1364.96 1193C1376.46 1190 1380.46 1157.5 1376.46 1148.5C1372.46 1139.5 1358.46 1164.5 1292.46 1162C1226.46 1159.5 1197.46 1147.5 1201.46 1134.5C1205.46 1121.5 1271.96 1124 1277.96 1118.5C1283.96 1113 1276.46 1092.5 1276.46 1083.5C1276.46 1074.5 1280.46 1071.5 1286.46 1068C1292.46 1064.5 1295.96 1062.5 1295.96 1054.5C1295.96 1046.5 1287.46 1041 1289.96 1032C1292.46 1023 1275.46 1046 1277.96 1058C1280.46 1070 1295.96 1070 1295.96 1075C1295.96 1080 1299.46 1125 1295.96 1128.5C1292.46 1132 1279.46 1135 1277.96 1128.5C1276.46 1122 1292.46 1120 1308.96 1121.5C1325.46 1123 1362.96 1128.5 1367.46 1134.5C1371.96 1140.5 1374.96 1246 1367.46 1256C1359.96 1266 1310.96 1278.5 1277.96 1276.5C1244.96 1274.5 1193.96 1247 1189.96 1237C1185.96 1227 1183.46 1217 1188.46 1218C1193.46 1219 1202.96 1236 1176.96 1246C1150.96 1256 1137.46 1263 1100.46 1254.5C1063.46 1246 948.963 1177 810.963 1220.5C672.963 1264 717.463 1364.5 596.463 1357C556.34 1354.51 541.963 1339.5 519.963 1335.5C500.23 1331.91 470.463 1339.5 424.463 1323C386.856 1309.51 356.963 1342.5 322.463 1335.5C287.963 1328.5 264.963 1317.5 258.963 1323C252.963 1328.5 250.963 1370.5 254.963 1378C258.963 1385.5 297.463 1399 341.963 1397C386.463 1395 415.963 1391.5 424.463 1380.5C432.963 1369.5 426.963 1332.5 418.963 1330.5C410.963 1328.5 345.963 1361 324.463 1357C302.963 1353 179.463 1297.5 179.463 1292.5C179.463 1287.5 329.463 1261 341.963 1262C354.463 1263 511.463 1287 510.963 1292.5C510.463 1298 445.463 1317 434.963 1317.5C424.463 1318 377.963 1286 348.463 1288C318.963 1290 333.463 1304 339.463 1303.5C345.463 1303 348.463 1299.5 348.463 1296C348.463 1292.5 345.963 1283 302.463 1296C258.963 1309 205.963 1294.5 201.963 1315C197.963 1335.5 204.963 1348.5 197.963 1364.5C190.963 1380.5 171.463 1396.5 175.463 1401C179.463 1405.5 195.963 1399 201.963 1378C202.796 1387 205.763 1404.2 210.963 1401C216.163 1397.8 216.129 1382.67 215.463 1375.5C218.629 1386.33 226.363 1407.3 231.963 1404.5C238.963 1401 219.963 1370.5 215.463 1353C210.963 1335.5 206.963 1310.5 188.963 1323C170.963 1335.5 156.463 1317.5 130.463 1317.5C104.463 1317.5 56.9627 1342 22.9627 1404.5C-11.0374 1467 -18.9374 1681.2 143.463 1700C346.463 1723.5 640.963 1654 721.463 1686C801.963 1718 828.963 1768.3 828.963 1773.5C828.963 1780 822.963 1788 809.963 1776.5C796.963 1765 798.963 1730 834.463 1732C869.963 1734 900.463 1772.5 852.463 1824.5C804.463 1876.5 776.963 1884.5 766.963 1861C756.963 1837.5 780.463 1844.5 825.963 1864.5C871.463 1884.5 898.963 1868.1 898.963 1856.5C898.963 1844 876.963 1838 875.463 1853C873.963 1868 881.963 1874.5 896.463 1876C910.963 1877.5 969.82 1883.58 985.963 1881C1010.96 1877 1051.96 1852 1053.46 1795C1054.87 1741.43 1037.52 1718.5 1003.96 1718.5C966.463 1718.5 954.963 1766 956.963 1795C958.963 1824 974.962 1883.5 1031.96 1883C1088.96 1882.5 1149.46 1766.5 1167.46 1766.5C1185.46 1766.5 1184.46 1777.5 1170.96 1779C1157.46 1780.5 1136.96 1778.5 1138.46 1760C1139.96 1741.5 1160.96 1710.5 1192.96 1718.5C1224.96 1726.5 1235.46 1767.5 1234.46 1779C1233.46 1790.5 1231.46 1823.5 1196.46 1849.5C1161.46 1875.5 1120.96 1887.5 1119.96 1868.5C1118.96 1849.5 1189.46 1882.5 1220.96 1875.5C1252.46 1868.5 1311.4 1772.72 1323.46 1763.5C1331.96 1757 1343.96 1759 1340.46 1768.5C1336.96 1778 1327.46 1776 1321.46 1776C1313.19 1776 1298.96 1775 1299.96 1752C1300.96 1729 1328.46 1708 1355.46 1712C1382.46 1716 1409.96 1743.5 1404.46 1786.5C1398.96 1829.5 1363.46 1845.5 1353.96 1853.5C1344.46 1861.5 1298.46 1886.5 1288.96 1872.5C1278.57 1857.19 1389.46 1878.5 1418.96 1875.5" stroke="black" stroke-width="5" stroke-linecap="round" stroke-linejoin="round"/>
</svg>
