<svg width="1639" height="1091" viewBox="0 0 1639 1091" fill="none" xmlns="http://www.w3.org/2000/svg">
<path id="Vector 97" d="M17 5C-7.00003 136.5 46 360 87 415.5C128 471 164 479.526 186.5 466.5C205.5 455.5 204 406.5 164 412.5C146.131 415.18 127.436 448.69 154.5 477.5C170 494 206.5 503 219.5 566.5C232.5 630 163.938 714.956 119.5 744.62C65 781 -1.49997 805.12 6.49988 865.5C14.4997 925.88 122.551 928.307 178 921.12C244.5 912.5 327 873.12 323 843.62C319 814.12 279.5 818.12 279.5 805.12C279.5 794.72 291.5 795.786 297.5 797.62C311.5 801.786 340.6 810.02 345 809.62C350.5 809.12 448 720.12 449.5 711.12C451 702.12 292 647.12 307.5 620.12C323 593.12 476 660.62 492.5 657.62C509 654.62 584.5 585.12 604 605.12C623.5 625.12 546.5 679.12 542.5 704.12C538.5 729.12 574 876.62 552.5 893.62C531 910.62 496.5 745.62 482.5 744.62C468.5 743.62 373.5 822.62 370.5 833.12C367.5 843.62 378.5 874.62 370.5 885.62C362.5 896.62 347 893.5 345 885.62C340.769 868.943 371 861.62 384.5 871.12C398 880.62 474 955.12 562.5 939.62C633.3 927.22 773 887.24 926.5 893.62C1080 900 1229.73 958 1330 958C1509 958 1633.5 1014.29 1633.5 1086" stroke="black" stroke-width="10" stroke-linecap="round" stroke-linejoin="round"/>
</svg>
