<svg width="1819" height="670" viewBox="0 0 1819 670" fill="none" xmlns="http://www.w3.org/2000/svg">
<path id="Vector 98" d="M63.1089 5C63.1089 167 204 197 204 307C204 396 76.4998 415 31.4998 338C-40.9678 214 49.9997 112.367 144 81.8672C217.185 58.1208 261.06 58.485 426.11 81.5C563 100.588 672.608 161.5 808.108 145C943.608 128.5 962.769 83.6203 954.999 68.5C936.499 32.5 855.877 30.1903 808.108 35C687.608 47.1328 604.11 89.5 551.61 172C509.753 237.774 530.327 331.149 604.11 346C855 396.5 1045.22 258.5 1121.61 231C1198 203.5 1307 193 1264.5 276.5C1222 360 1310.11 381.5 1340.11 362.5C1370.11 343.5 1380.72 300.5 1354.11 266C1327.5 231.5 1314.44 172 1354.11 126.5C1378.52 98.5 1406.59 79.3281 1477.61 68.5C1589.11 51.5 1729.5 138 1775 231C1801.94 286.055 1842.73 412.5 1782 565.5C1753.16 638.158 1672 682.5 1651.5 654C1631 625.5 1599.5 498.779 1437 494C1298.06 489.914 1225 606.5 1218 664.5" stroke="black" stroke-width="10" stroke-linecap="round" stroke-linejoin="round"/>
</svg>
