<svg width="1669" height="1090" viewBox="0 0 1669 1090" fill="none" xmlns="http://www.w3.org/2000/svg">
<path id="Vector 99" d="M1662 5.5C1668 63.5 1647.24 181.5 1616.5 271C1589.02 351 1545 474.988 1545 556.5C1545 627.5 1610.5 819 1563 912.5C1515.5 1006 1153 983.82 1146.5 944.5C1137 887 1204 639.5 1208.5 625.5C1215.77 602.881 1199.5 587.5 1193.5 602C1187.94 615.43 1154 904.5 1167.5 912.5C1181 920.5 1390 914.5 1390 842.5C1390 763.5 1276 765.833 1241.5 764.5C1270.33 757.333 1354.7 734.1 1345.5 694.5C1334 645 1213 630.5 1167.5 663.5C1122 696.5 1081 921.5 941.5 935.5C802 949.5 544 840.5 395.5 858C247 875.5 25.5 996 5.5 1085" stroke="black" stroke-width="10" stroke-linecap="round" stroke-linejoin="round"/>
</svg>
