<svg width="1678" height="9325" viewBox="0 0 1678 9325" fill="none" xmlns="http://www.w3.org/2000/svg">
<path id="Vector 93" d="M757.5 5C757.5 18 757.5 36.5 776.5 173.5C795.5 310.5 831 422.5 831.5 588C832 753.5 792 943.5 796.5 1086.5C801 1229.5 833 1626.92 833 1749C833 1889 820.5 2240 822 2341C823.5 2442 854.5 2730 854.5 2898.5C854.5 3028 800 3558 804.5 3663.5C809 3769 809 4262.5 804.5 4320C800.119 4375.98 776 4432 711 4474C646 4516 562 4526.13 544 4487.5C523.5 4443.5 556 4421 562 4416.5C568 4412 610 4401 623.5 4437.5C637 4474 610.5 4535.5 562 4540C513.5 4544.5 290 4544.5 209.5 4567C129.371 4589.4 73.5 4641.5 37.5 4727C1.5 4812.5 74 4923 74 4986C74 5049 70.5 5088.5 37.5 5117C4.50006 5145.5 10.5001 5186 19.5001 5196.5C28.5001 5207 39.5001 5210 54.5001 5207C69.5001 5204 111.5 5162 131 5162C150.5 5162 181 5207 197.5 5196.5C214 5186 206.5 5153.5 197.5 5117C188.5 5080.5 264 5050 274.5 5038.5C285 5027 292.5 4973 303.5 4965.5C314.5 4958 333 4941.5 337 4953.5C341 4965.5 325.5 4974 327 4986C328.5 4998 328 5012.5 342.5 5009C354.1 5006.2 441.333 4892.17 483.5 4835.5C481.167 4834.67 477.2 4831.7 480 4826.5C483.5 4820 556.5 4759.5 566 4772C575.5 4784.5 541.5 4801.5 537.5 4814C533.5 4826.5 523.5 4853 516 4851.5C508.5 4850 506.5 4847.5 498.5 4851.5C490.5 4855.5 358 5032 352.5 5064C347 5096 331 5170.5 322.5 5177.5C314 5184.5 303 5191.5 298 5184.5C293 5177.5 303.5 5155.5 298 5140C292.5 5124.5 249.5 5110 257 5085.5C264.5 5061 278.5 5071.5 298 5055C317.5 5038.5 308 5020.5 322.5 5020.5C337 5020.5 329.5 5046 352.5 5055C375.5 5064 405 5046 407.5 5055C410 5064 412.5 5071.5 399 5082.5C385.5 5093.5 375.5 5087.5 365.5 5107C355.5 5126.5 358 5164.5 342.5 5180.5C327 5196.5 279.5 5218.5 246 5192C212.5 5165.5 227 5161 233 5166C239 5171 282.5 5211.5 293 5213.5C303.5 5215.5 352 5197.5 385 5213.5C418 5229.5 518.5 5263.5 594 5256C669.5 5248.5 793.5 5244.5 917 5243.5C1040.5 5242.5 1404 5311.5 1519.5 5412.5C1635 5513.5 1701 5732.5 1660 5942C1619 6151.5 1587.5 6187.5 1569.5 6221C1551.5 6254.5 1531.5 6269.5 1506.5 6261.5C1481.5 6253.5 1481.5 6230 1491 6214C1500.5 6198 1519 6202.5 1525 6205C1531 6207.5 1556.5 6219 1542.5 6261.5C1528.5 6304 1388.5 6351 1330.5 6347C1272.5 6343 1228 6357 1201.5 6294C1180.3 6243.6 1135 6123.67 1115 6070C1110.67 6060.67 1106.7 6040 1125.5 6032C1149 6022 1213 5994.5 1216 5996.5C1219 5998.5 1221.5 6013 1201.5 6022.5C1181.5 6032 1169 6038 1167 6032C1165 6026 1183.5 6016.5 1194 6010.5C1202.4 6005.7 1236.83 5991.83 1253 5985.5C1259 5981.67 1272.9 5978.5 1280.5 5996.5C1288.1 6014.5 1348.33 6159 1377.5 6229C1379.17 6237.67 1377 6257.2 1355 6266C1333 6274.8 1247 6310 1242.5 6309.5C1238 6309 1230 6314.6 1220 6289C1210 6263.4 1160.5 6137 1137 6077C1135.17 6072.5 1134.7 6062 1147.5 6056C1160.3 6050 1223.17 6026.17 1253 6015C1258.5 6013.5 1270.6 6013.5 1275 6025.5C1279.4 6037.5 1327.5 6153.5 1351 6210C1352.33 6215.5 1351.9 6228 1339.5 6234C1327.1 6240 1237.33 6278.83 1194 6297.5C1176 6302.17 1132.5 6310.1 1102.5 6304.5C1065 6297.5 980 6248.5 912.5 6276.5C845 6304.5 787 6328 649 6334.5C511 6341 226.5 6276.5 142 6330.5C57.5001 6384.5 43.5 6433.5 31.0001 6488.5C18.5001 6543.5 15.5001 6704.5 59.0001 6806.5C102.5 6908.5 160 6978.5 197 6950.5C234 6922.5 206.5 6887 182 6894.5C157.5 6902 134.5 6931.5 197 6982.5C259.5 7033.5 225 7149 169 7198.5C113 7248 2.50007 7286.5 22.0001 7346.5C41.5001 7406.5 155 7424 215 7402.5C275 7381 345 7353 337.5 7321C330 7289 296.5 7305 296.5 7287.5C296.5 7270 351 7297.5 357 7292.5C363 7287.5 463 7200 463 7195.5C463 7191 310.5 7126 322.5 7102.5C334.5 7079 490 7143.5 503.5 7141C517 7138.5 601.5 7072 619 7088C636.5 7104 562.5 7165 558.5 7182C554.5 7199 587 7371.5 565.5 7378C544 7384.5 511.5 7231 497.5 7228.5C483.5 7226 387.5 7303 384.5 7316.5C381.5 7330 394 7361 384.5 7369.5C375 7378 359 7368.5 367 7353.5C375 7338.5 395 7350.5 404 7358C413 7365.5 489.5 7430 554 7424.5C618.5 7419 817 7353.5 964.5 7378C1112 7402.5 1239 7448.5 1332.5 7460.5C1426 7472.5 1599 7396 1651.5 7564.5C1704 7733 1587.5 7903 1560.5 7981.5C1533.5 8060 1554 8213 1560.5 8307.5C1567 8402 1596 8436 1494.5 8513.5C1393 8591 1161 8560 1131.5 8513.5C1102 8467 1211 8197 1197.5 8171.5C1184 8146 1179 8163 1175.5 8171.5C1172 8180 1138.5 8460 1151 8477C1163.5 8494 1379.5 8481.5 1378 8402C1376.8 8338.4 1276.83 8324.83 1227 8326C1261.33 8322.17 1330 8304.5 1330 8264.5C1330 8214.5 1190 8190.5 1151 8224C1112 8257.5 1098 8417 1021 8485.5C944 8554 594.5 8408 459.5 8421.5C324.5 8435 57.5001 8505 52.5001 8651C47.5001 8797 199.5 8849.5 218 8963.5C236.5 9077.5 145.5 9102.5 99.0001 9095C52.5001 9087.5 -27.9999 9002.5 19.5001 8901C67.0001 8799.5 148.5 8749.5 228 8761.5C307.5 8773.5 473 8870 619 8880C765 8890 851.5 8833.5 850.5 8803C849.5 8772.5 768 8729.5 660.5 8752.5C553 8775.5 468.5 8804.5 496.5 8913.5C524.5 9022.5 729.5 9021 831 9003C932.5 8985 1054.5 9067.5 1079 9158.5C1103.5 9249.5 1119.5 9321.5 1139 9319C1158.5 9316.5 1174.5 9144 1342.5 9136.5C1476.9 9130.5 1551.17 9250 1571.5 9310.5" stroke="black" stroke-width="10" stroke-linecap="round" stroke-linejoin="round"/>
</svg>
