<svg width="1616" height="1997" viewBox="0 0 1616 1997" fill="none" xmlns="http://www.w3.org/2000/svg">
<path id="&#237;&#148;&#132;&#235;&#161;&#156;&#237;&#149;&#132;" d="M427.5 2.5C383.5 40 340.5 182.5 325.5 218.5C310.5 254.5 282.8 257 264 249C240.5 239 189 201 175 218.5C161 236 206 262.5 224 258.5C242 254.5 272 221 264 202.5C256 184 237 191.5 237 202.5C237 213.5 264 217 264 165C264 113 222 113.5 209.5 117.5C197 121.5 175 156.5 175 176.5C175 196.5 197.5 188 203.5 176.5C209.5 165 176.5 97.5 132.5 117.5C88.5002 137.5 96.0002 197.5 107.5 208C119 218.5 136 192.5 125.5 184.5C115 176.5 67.5001 134.5 46.0001 165C24.5001 195.5 41.5001 244 56.0001 249C70.5001 254 81.5 237.5 75 228C68.5 218.5 32.9999 251 39.5 267.5C46.0001 284 147 227.5 161 258.5C175 289.5 23.5004 500.5 107.5 688.5C191.5 876.5 453 921 595.5 897.5C716.459 877.552 702 837.5 788 737.5C874 637.5 968 751 1049.5 775C1131 799 1149.08 747.14 1151 738C1153 728.5 1153 726 1143.5 715.5C1134 705 1113 684 1117.5 679.5C1122 675 1136.5 694 1140 692C1143.5 690 1126.5 669 1132.5 667C1138.5 665 1147.5 687.5 1154 687.5C1160.5 687.5 1141 664 1147.5 662C1154 660 1163.5 686 1167 684.5C1170.5 683 1160 662 1167 662C1174 662 1180.13 678.217 1184.5 687.5C1188.5 696 1194 700 1197.5 696C1201 692 1197 685.5 1205.5 688C1214 690.5 1212 708 1203.5 723.5C1195 739 1193 735.5 1186 735C1179 734.5 1167 729 1167 735C1167 741 1189.27 746.058 1197.5 744C1205.5 742 1212.58 728.561 1222 721.5C1230 715.5 1303.5 682.5 1305 673.5C1306.5 664.5 1274.5 645.5 1268 639.5C1261.5 633.5 1254 620 1243.5 618C1233 616 1231.5 615.5 1230 618C1228.5 620.5 1248.5 624.5 1248.5 629C1248.5 633.5 1239.5 624.5 1228.5 625.5C1217.5 626.5 1213.5 626.5 1212 629C1210.5 631.5 1241.5 631.5 1242.5 638.5C1237 636.833 1224.3 634.2 1217.5 637C1209 640.5 1209 643 1212.5 644C1216 645 1228.5 640.5 1236.5 644C1244.5 647.5 1246 650 1245 657.5C1244 665 1230.5 653 1223 652.5C1215.5 652 1211.5 652.5 1213.5 657.5C1215.5 662.5 1231.5 665.5 1235 672C1238.5 678.5 1242 680.5 1251 682.5C1260 684.5 1273 673.5 1274.5 679.5C1276 685.5 1248 695.5 1230 704.5C1212 713.5 1202 724.5 1179 720C1156 715.5 1164.5 725.679 1160 739C1155.5 752.321 1148 758 1131 746.5C1111.83 716.167 1074 653.9 1076 647.5C1078 641.1 1157.83 615.5 1197.5 603.5C1200.17 602.833 1205.8 601.9 1207 603.5C1208.5 605.5 1186 619.5 1167 626.5C1148 633.5 1104.5 648.5 1099.5 644C1094.5 639.5 1097 634.5 1091 632.5C1085 630.5 1079 638.5 1073.5 635C1068 631.5 1040.5 527.5 1046.5 518.5C1052.5 509.5 1213.5 471.5 1223.5 477.5C1233.5 483.5 1255 575.5 1250.5 583C1246 590.5 1231 592 1228.5 587.5C1226 583 1237 585 1240.5 574.5C1244 564 1225.5 492.5 1213 489.5C1200.5 486.5 1067.5 515.5 1062.5 527C1057.5 538.5 1077.5 622.5 1087.5 624C1097.5 625.5 1199.5 579.5 1220.5 593.5C1241.5 607.5 1265 620.5 1280 624C1295 627.5 1316 646.5 1316.5 662C1317 677.5 1315 695.5 1333.5 694.5C1352 693.5 1526.7 669.678 1578.5 813C1593.5 854.5 1621.5 920 1610.5 1082C1599.5 1244 1524.6 1332.6 1465 1351C1390.5 1374 1378 1337 1379.5 1330C1381 1323 1387 1322 1388 1326C1389 1330 1385 1340.5 1376.5 1348C1368 1355.5 1326.5 1380 1280.5 1375C1234.5 1370 1202.5 1352.5 1201.5 1344C1200.5 1335.5 1203 1261.5 1197.5 1259.5C1192 1257.5 1190.5 1272 1190 1275C1189.5 1278 1190.5 1297.5 1197.5 1297.5C1204.5 1297.5 1206 1277 1213.5 1282C1221 1287 1208 1312 1219 1320C1230 1328 1229.5 1319 1232.5 1317.5C1235.5 1316 1239.5 1318 1242.5 1315.5C1245.5 1313 1246 1300.5 1252.5 1304C1259 1307.5 1256.5 1322.5 1256 1330C1255.5 1337.5 1258 1356 1265 1353.5C1272 1351 1272 1340 1271 1330C1270 1320 1270.5 1315.5 1276.5 1315.5C1282.5 1315.5 1280.5 1330 1280.5 1338C1280.5 1346 1279 1357.5 1284 1357C1289 1356.5 1291.5 1331 1290 1317.5C1288.5 1304 1287 1286.5 1298 1287.5C1309 1288.5 1307 1306.5 1305.5 1312C1304 1317.5 1299 1337.5 1303 1344C1307 1350.5 1308 1342.5 1312.5 1348C1317 1353.5 1315.5 1359.5 1323.5 1359.5C1331.5 1359.5 1323.5 1315.5 1323.5 1304C1323.5 1292.5 1328 1287.5 1331.5 1287.5C1335 1287.5 1337.5 1299 1335.5 1309.5C1333.5 1320 1333.5 1352 1343.5 1348C1353.5 1344 1343.5 1314 1343.5 1304C1343.5 1294 1348 1289 1353 1290C1358 1291 1353.5 1307 1365 1304C1376.5 1301 1380.5 1268.5 1376.5 1259.5C1372.5 1250.5 1358.5 1275.5 1292.5 1273C1226.5 1270.5 1197.5 1258.5 1201.5 1245.5C1205.5 1232.5 1272 1235 1278 1229.5C1284 1224 1276.5 1203.5 1276.5 1194.5C1276.5 1185.5 1280.5 1182.5 1286.5 1179C1292.5 1175.5 1296 1173.5 1296 1165.5C1296 1157.5 1287.5 1152 1290 1143C1292.5 1134 1275.5 1157 1278 1169C1280.5 1181 1296 1181 1296 1186C1296 1191 1299.5 1236 1296 1239.5C1292.5 1243 1279.5 1246 1278 1239.5C1276.5 1233 1292.5 1231 1309 1232.5C1325.5 1234 1363 1239.5 1367.5 1245.5C1372 1251.5 1375 1357 1367.5 1367C1360 1377 1311 1389.5 1278 1387.5C1245 1385.5 1194 1358 1190 1348C1186 1338 1183.5 1328 1188.5 1329C1193.5 1330 1203 1347 1177 1357C1151 1367 1137.5 1374 1100.5 1365.5C1063.5 1357 949 1288 811 1331.5C673 1375 717.5 1475.5 596.5 1468C556.378 1465.51 542 1450.5 520 1446.5C500.267 1442.91 470.5 1450.5 424.5 1434C386.893 1420.51 357 1453.5 322.5 1446.5C288 1439.5 265 1428.5 259 1434C253 1439.5 251 1481.5 255 1489C259 1496.5 297.5 1510 342 1508C386.5 1506 416 1502.5 424.5 1491.5C433 1480.5 427 1443.5 419 1441.5C411 1439.5 346 1472 324.5 1468C303 1464 179.5 1408.5 179.5 1403.5C179.5 1398.5 329.5 1372 342 1373C354.5 1374 511.5 1398 511 1403.5C510.5 1409 445.5 1428 435 1428.5C424.5 1429 378 1397 348.5 1399C319 1401 333.5 1415 339.5 1414.5C345.5 1414 348.5 1410.5 348.5 1407C348.5 1403.5 346 1394 302.5 1407C259 1420 206 1405.5 202 1426C198 1446.5 205 1459.5 198 1475.5C191 1491.5 171.5 1507.5 175.5 1512C179.5 1516.5 196 1510 202 1489C202.833 1498 205.8 1515.2 211 1512C216.2 1508.8 216.167 1493.67 215.5 1486.5C218.667 1497.33 226.4 1518.3 232 1515.5C239 1512 220 1481.5 215.5 1464C211 1446.5 207 1421.5 189 1434C171 1446.5 156.5 1428.5 130.5 1428.5C104.5 1428.5 57.0001 1453 23 1515.5C-11 1578 -18.9 1792.2 143.5 1811C346.5 1834.5 641 1765 721.5 1797C802 1829 829 1879.3 829 1884.5C829 1891 823 1899 810 1887.5C797 1876 799 1841 834.5 1843C870 1845 900.5 1883.5 852.5 1935.5C804.5 1987.5 777 1995.5 767 1972C757 1948.5 780.5 1955.5 826 1975.5C871.5 1995.5 899 1979.1 899 1967.5C899 1955 877 1949 875.5 1964C874 1979 882 1985.5 896.5 1987C911 1988.5 969.858 1994.58 986 1992C1011 1988 1052 1963 1053.5 1906C1054.91 1852.43 1037.56 1829.5 1004 1829.5C966.5 1829.5 955 1877 957 1906C959 1935 975 1994.5 1032 1994C1089 1993.5 1149.5 1877.5 1167.5 1877.5C1185.5 1877.5 1184.5 1888.5 1171 1890C1157.5 1891.5 1137 1889.5 1138.5 1871C1140 1852.5 1161 1821.5 1193 1829.5C1225 1837.5 1235.5 1878.5 1234.5 1890C1233.5 1901.5 1231.5 1934.5 1196.5 1960.5C1161.5 1986.5 1121 1998.5 1120 1979.5C1119 1960.5 1189.5 1993.5 1221 1986.5C1252.5 1979.5 1311.44 1883.72 1323.5 1874.5C1332 1868 1344 1870 1340.5 1879.5C1337 1889 1327.5 1887 1321.5 1887C1313.22 1887 1299 1886 1300 1863C1301 1840 1328.5 1819 1355.5 1823C1382.5 1827 1410 1854.5 1404.5 1897.5C1399 1940.5 1363.5 1956.5 1354 1964.5C1344.5 1972.5 1298.5 1997.5 1289 1983.5C1278.61 1968.19 1389.5 1989.5 1419 1986.5" stroke="black" stroke-width="5" stroke-linecap="round" stroke-linejoin="round"/>
</svg>
