<svg width="728" height="331" viewBox="0 0 728 331" fill="none" xmlns="http://www.w3.org/2000/svg">
<path id="&#236;&#157;&#180;&#235;&#166;&#132;" d="M77.4626 3C46.9626 47.8333 -10.1374 141.2 5.46258 156C24.9626 174.5 106.963 64.5 109.463 57C111.963 49.5 23.9626 107.5 23.9626 114.5C23.9626 121.5 82.4626 84 95.9626 87.5C106.763 90.3 100.463 106.667 95.9626 114.5C114.463 90.8333 156.563 44 176.963 46C165.296 61.6667 141.063 96.1 137.463 108.5C160.129 86.8333 207.863 46.2 217.463 57C229.463 70.5 72.4626 256.5 61.4626 262C50.4626 267.5 91.5708 213 109.463 200.5C127.354 188 160.463 165.5 171.963 170C183.463 174.5 137.463 306.5 137.463 326.5C137.463 346.5 199.963 89 266.963 46C256.129 65.6667 232.763 113.8 225.963 149C253.296 112.167 318.663 42.2 361.463 57C414.963 75.5 260.963 194.5 243.463 190.5C225.963 186.5 424.963 62.5 440.963 57C456.963 51.5 366.463 147.5 355.963 190.5C335.129 219.167 295.963 283.1 305.963 309.5C318.463 342.5 465.963 264.5 450.963 257C435.963 249.5 407.963 225.5 450.963 170C493.963 114.5 635.963 61 657.963 65.5C679.963 70 563.463 132.5 535.463 156C507.463 179.5 702.463 90.5 721.963 99.5C741.463 108.5 673.463 142 650.463 156C627.463 170 535.463 224 535.463 237.5C535.463 251 530.963 291.5 615.463 262C699.963 232.5 657.463 214.5 623.463 219C596.263 222.6 548.463 230.5 536.138 251.5" stroke="black" stroke-width="5" stroke-linecap="round" stroke-linejoin="round"/>
</svg>
