<svg width="759" height="563" viewBox="0 0 759 563" fill="none" xmlns="http://www.w3.org/2000/svg">
<path id="Vector 94" d="M108.5 3C78 47.8333 20.9 141.2 36.5 156C56 174.5 138 64.5 140.5 57C143 49.5 55 107.5 55 114.5C55 121.5 113.5 84 127 87.5C137.8 90.3 131.5 106.667 127 114.5C145.5 90.8333 187.6 44 208 46C196.333 61.6667 172.1 96.1 168.5 108.5C191.167 86.8333 238.9 46.2 248.5 57C260.5 70.5 103.5 256.5 92.5 262C81.5 267.5 122.608 213 140.5 200.5C158.392 188 191.5 165.5 203 170C214.5 174.5 168.5 306.5 168.5 326.5C168.5 346.5 231 89 298 46C287.167 65.6667 263.8 113.8 257 149C284.333 112.167 349.7 42.2 392.5 57C446 75.5 292 194.5 274.5 190.5C257 186.5 456 62.5 472 57C488 51.5 397.5 147.5 387 190.5C366.167 219.167 327 283.1 337 309.5C349.5 342.5 497 264.5 482 257C467 249.5 439 225.5 482 170C525 114.5 667 61 689 65.5C711 70 594.5 132.5 566.5 156C538.5 179.5 733.5 90.5 753 99.5C772.5 108.5 704.5 142 681.5 156C658.5 170 566.5 224 566.5 237.5C566.5 251 562 291.5 646.5 262C731 232.5 688.5 214.5 654.5 219C627.3 222.6 579.5 230.5 567.175 251.5C545.783 275.5 488.4 329.9 430 355.5C357 387.5 109.5 397.5 11 391C-67.8 385.8 469.167 399.167 747.5 406.5C639 406.667 472 452.5 364 462.5C250.93 472.969 76.5 523 32.5 560.5" stroke="black" stroke-width="5" stroke-linecap="round" stroke-linejoin="round"/>
</svg>
