<svg width="50" height="108" viewBox="0 0 50 108" fill="none" xmlns="http://www.w3.org/2000/svg">
<path id="Vector 103" d="M24.3205 1.99243C16.4175 7.67277 9.65675 16.2512 6.60638 25.5212C2.0947 39.232 1.50024 53.9953 3.63148 68.229C4.61245 74.7804 8.53568 80.0507 12.5562 85.1544C14.8095 88.0147 17.3377 90.0075 20.4667 91.8028C22.9765 93.2429 29.8588 96.9814 32.479 93.6734C35.0983 90.3664 37.0839 86.6489 38.3612 82.6753C38.5998 81.9328 39.2749 78.9415 40.367 80.3314C42.1746 82.6321 42.6837 85.7752 43.7475 88.4448C44.9049 91.3491 46.7649 94.3131 47.6014 97.3244C48.1747 99.3883 43.7196 100.263 42.5756 100.66C38.1747 102.186 33.773 103.58 29.459 105.348C27.4112 106.187 28.282 105.349 28.9857 103.995C29.8101 102.41 30.9676 101.152 31.8029 99.6006C32.446 98.4063 34.0566 96.4876 34.0566 95.2961" stroke="black" stroke-width="3" stroke-linecap="round"/>
</svg>
