<svg width="18" height="24" viewBox="0 0 18 24" fill="none" xmlns="http://www.w3.org/2000/svg">
<path id="Vector 102" d="M9.16917 5.93403C8.16956 5.98957 7.70127 7.01189 7.68943 7.87619C7.68162 8.44646 7.71854 8.68285 8.14671 9.0682C8.49039 9.37752 9.0885 9.5644 9.52883 9.67449C10.3312 9.87507 11.3325 9.23292 11.7536 8.57496C12.235 7.8227 12.1474 7.11515 12.1287 6.23204C12.1145 5.56571 11.3703 4.66393 10.7414 4.45429C10.2986 4.30669 9.85817 4.26933 9.39524 4.26933C8.92308 4.26933 8.7949 4.51214 8.3882 4.77285C7.12715 5.58121 5.82352 6.40907 5.01254 7.70664C4.63665 8.30806 4.52592 8.93765 4.54499 9.63338C4.57421 10.7002 5.67945 10.9845 6.53852 11.2775C7.01643 11.4405 8.25046 11.8814 8.71703 11.5704C9.14066 11.288 9.66466 11.1358 10.1557 11.0206C11.1418 10.7893 12.441 10.3598 13.2641 9.71559C13.8703 9.24122 13.9783 7.85317 13.9783 7.16715C13.9783 5.73794 13.5245 4.4847 12.3753 3.57056C12.2293 3.45445 12.1378 3.44652 11.954 3.43697C11.365 3.40638 10.8014 3.23751 10.2173 3.17494C9.23346 3.06952 8.19337 3.15952 7.20646 3.15952C6.15953 3.15952 4.78994 3.47459 4.09284 4.36181C3.32564 5.33825 2.69531 6.33146 2.69531 7.60902C2.69531 9.19669 2.34625 10.9999 3.41463 12.2949C3.87047 12.8474 4.47738 12.7927 4.98685 13.1632C5.15488 13.2854 5.16796 13.5181 5.24889 13.6924C5.41366 14.0473 5.92137 14.0302 6.2508 14.0932C7.56729 14.3448 8.56785 14.384 9.8217 13.8825C10.1031 13.7699 10.3475 13.637 10.577 13.4458C10.9184 13.1613 11.5508 13.1609 11.9745 13.0964C12.9924 12.9415 13.9766 12.6152 14.7182 11.853C15.3229 11.2315 15.6065 10.1204 15.9205 9.33538C16.2673 8.46833 16.013 7.09771 16.013 6.17038C16.013 5.072 15.7681 4.00418 14.6822 3.53459C13.6005 3.06682 12.5111 2.69347 11.3374 2.53269C10.105 2.36386 8.95067 2.01453 7.70998 2.41965C6.15347 2.9279 4.13871 2.95007 3.24508 4.6033C2.73376 5.54923 1.99202 6.3529 1.72423 7.42405C1.28433 9.18366 1.58308 10.917 2.99331 12.1304C4.27244 13.2311 6.37575 14.1736 8.05937 14.3706C8.49478 14.4216 8.96792 14.37 9.39524 14.4477C9.66518 14.4968 9.53911 15.275 9.53911 15.4701C9.53911 17.5938 9.53911 19.7175 9.53911 21.8412" stroke="black" stroke-width="3" stroke-linecap="round"/>
</svg>
